<svg id="kity_svg_6" xmlns="http://www.w3.org/2000/svg" xmlns:xlink="http://www.w3.org/1999/xlink" version="1.1" width="1226" height="306" style="background: rgb(251, 251, 251); visibility: visible;" viewBox="0 0 1226 306"><defs id="kity_defs_7"><linearGradient id="kity_linearGradient_17" x1="0" y1="0" x2="0" y2="1"><stop id="kity_stop_18" offset="0" stop-color="rgb(255, 255, 255)"></stop><stop id="kity_stop_19" offset="1" stop-color="rgb(204, 204, 204)"></stop></linearGradient></defs><g id="kity_g_8"><g id="minder1" text-rendering="optimize-speed"><g id="minder_connect_group1"><path id="kity_path_39" fill="none" stroke="rgb(115, 161, 191)" stroke-width="1" d="M166.5,153.5h70L286.5,103.5"></path><path id="kity_path_63" fill="none" stroke="rgb(115, 161, 191)" stroke-width="1" d="M376.652,77.5L422.5,31.5"></path><path id="kity_path_79" fill="none" stroke="rgb(115, 161, 191)" stroke-width="1" d="M166.5,153.5h90L306.5,203.5"></path><path id="kity_path_103" fill="none" stroke="rgb(115, 161, 191)" stroke-width="1" d="M407.348,229.5L453.5,275.5"></path><path id="kity_path_119" fill="none" stroke="rgb(115, 161, 191)" stroke-width="1" d="M166.5,153.5h346L562.5,103.5"></path><path id="kity_path_127" fill="none" stroke="rgb(115, 161, 191)" stroke-width="1" d="M641.956,77.5L687.5,31.5"></path><path id="kity_path_135" fill="none" stroke="rgb(115, 161, 191)" stroke-width="1" d="M166.5,153.5h394L610.5,203.5"></path><path id="kity_path_143" fill="none" stroke="rgb(115, 161, 191)" stroke-width="1" d="M166.5,153.5h623L839.5,103.5"></path><path id="kity_path_151" fill="none" stroke="rgb(115, 161, 191)" stroke-width="1" d="M166.5,153.5h670L886.5,203.5"></path><path id="kity_path_159" fill="none" stroke="rgb(115, 161, 191)" stroke-width="1" d="M700.652,229.5L746.5,275.5"></path><path id="kity_path_167" fill="none" stroke="rgb(115, 161, 191)" stroke-width="1" d="M940.348,77.5L986.5,31.5"></path><path id="kity_path_175" fill="none" stroke="rgb(115, 161, 191)" stroke-width="1" d="M1008.74,229.5L1054.5,275.5"></path></g><g id="minder_node1"><path id="node_outline1" fill="rgb(115, 161, 191)" stroke="rgb(115, 161, 191)" d="M25.5,133.5h136a5,5,0,0,1,5,5v30a5,5,0,0,1,-5,5h-136a5,5,0,0,1,-5,-5v-30a5,5,0,0,1,5,-5z" stroke-width="3"></path><g id="node_text1" fill="white"><text id="kity_text_22" text-rendering="inherit" font-size="16" dy=".8em" y="143.09999990463257" x="44.5">相关法律法规</text></g></g><g id="kity_g_14" display="none"><path id="kity_path_15" fill="none" stroke="none" d="M44.5,153.5h0v0h0z"></path><path id="kity_path_16" fill="none" stroke="none"></path></g><g id="minder_node3"><g id="node_expander2" style="cursor: pointer;"><path id="kity_path_44" fill="white" stroke="gray" d="M287.5502529144287,108.44974708557129A6,6,0,1,1,275.5502529144287,108.44974708557129A6,6,0,1,1,287.5502529144287,108.44974708557129"></path><path id="kity_path_45" fill="none" stroke="gray" d="M277.0502529144287,108.44974708557129L286.0502529144287,108.44974708557129"></path></g><path id="node_outline3" fill="rgb(238, 243, 246)" stroke="rgb(115, 161, 191)" d="M289.5,77.5h230a3,3,0,0,1,3,3v20a3,3,0,0,1,-3,3h-230a3,3,0,0,1,-3,-3v-20a3,3,0,0,1,3,-3z" stroke-width="1"></path><g id="node_text3" fill="black"><text id="kity_text_41" text-rendering="inherit" font-size="14" dy=".8em" y="81.40000009536743" x="306.5">《突发公共卫生事件应急条例》</text></g></g><g id="kity_g_12" display="none"><path id="kity_path_13" fill="none" stroke="rgb(66, 94, 112)" d="M1749.5,77.5h92a3,3,0,0,1,3,3v20a3,3,0,0,1,-3,3h-92a3,3,0,0,1,-3,-3v-20a3,3,0,0,1,3,-3z" stroke-width="5"></path></g><g id="minder_node6"><g id="node_expander5" style="cursor: pointer;" display="none"><path id="kity_path_68" fill="white" stroke="gray" d="M422.5,31.5A6,6,0,1,1,410.5,31.5A6,6,0,1,1,422.5,31.5"></path><path id="kity_path_69" fill="none" stroke="gray"></path></g><path id="node_outline6" fill="none" stroke="none" d="M427.5,20.5h88a5,5,0,0,1,5,5v12a5,5,0,0,1,-5,5h-88a5,5,0,0,1,-5,-5v-12a5,5,0,0,1,5,-5z" stroke-width="3"></path><g id="node_text6" fill="black"><text id="kity_text_65" text-rendering="inherit" font-size="12" dy=".8em" y="23.700000047683716" x="432.5">2003年5月7日 </text></g></g><g id="minder_node8"><g id="node_expander7" style="cursor: pointer;"><path id="kity_path_84" fill="white" stroke="gray" d="M307.5502529144287,198.5502529144287A6,6,0,1,1,295.5502529144287,198.5502529144287A6,6,0,1,1,307.5502529144287,198.5502529144287"></path><path id="kity_path_85" fill="none" stroke="gray" d="M297.0502529144287,198.5502529144287L306.0502529144287,198.5502529144287"></path></g><path id="node_outline8" fill="rgb(238, 243, 246)" stroke="rgb(115, 161, 191)" d="M309.5,203.5h258a3,3,0,0,1,3,3v20a3,3,0,0,1,-3,3h-258a3,3,0,0,1,-3,-3v-20a3,3,0,0,1,3,-3z" stroke-width="1"></path><g id="node_text8" fill="black"><text id="kity_text_81" text-rendering="inherit" font-size="14" dy=".8em" y="207.40000009536743" x="326.5">《国家突发公共事件总体应急预案》</text></g></g><g id="minder_node11"><g id="node_expander10" style="cursor: pointer;" display="none"><path id="kity_path_108" fill="white" stroke="gray" d="M453.5,275.5A6,6,0,1,1,441.5,275.5A6,6,0,1,1,453.5,275.5"></path><path id="kity_path_109" fill="none" stroke="gray"></path></g><path id="node_outline11" fill="none" stroke="none" d="M458.5,264.5h95a5,5,0,0,1,5,5v12a5,5,0,0,1,-5,5h-95a5,5,0,0,1,-5,-5v-12a5,5,0,0,1,5,-5z" stroke-width="3"></path><g id="node_text11" fill="black"><text id="kity_text_105" text-rendering="inherit" font-size="12" dy=".8em" y="267.7000000476837" x="463.5">2005年1月26日 </text></g></g><g id="minder_node13"><g id="node_expander12" style="cursor: pointer;"><path id="kity_path_124" fill="white" stroke="gray" d="M563.5502529144287,108.44974708557129A6,6,0,1,1,551.5502529144287,108.44974708557129A6,6,0,1,1,563.5502529144287,108.44974708557129"></path><path id="kity_path_125" fill="none" stroke="gray" d="M553.0502529144287,108.44974708557129L562.0502529144287,108.44974708557129"></path></g><path id="node_outline13" fill="rgb(238, 243, 246)" stroke="rgb(115, 161, 191)" d="M565.5,77.5h202a3,3,0,0,1,3,3v20a3,3,0,0,1,-3,3h-202a3,3,0,0,1,-3,-3v-20a3,3,0,0,1,3,-3z" stroke-width="1"></path><g id="node_text13" fill="black"><text id="kity_text_121" text-rendering="inherit" font-size="14" dy=".8em" y="81.40000009536743" x="582.5">《重大动物疫情应急条例》</text></g></g><g id="minder_node14"><g id="node_expander13" style="cursor: pointer;" display="none"><path id="kity_path_132" fill="white" stroke="gray" d="M687.5,31.5A6,6,0,1,1,675.5,31.5A6,6,0,1,1,687.5,31.5"></path><path id="kity_path_133" fill="none" stroke="gray"></path></g><path id="node_outline14" fill="none" stroke="none" d="M692.5,20.5h102a5,5,0,0,1,5,5v12a5,5,0,0,1,-5,5h-102a5,5,0,0,1,-5,-5v-12a5,5,0,0,1,5,-5z" stroke-width="3"></path><g id="node_text14" fill="black"><text id="kity_text_129" text-rendering="inherit" font-size="12" dy=".8em" y="23.700000047683716" x="697.5">2005年11月16日 </text></g></g><g id="minder_node15"><g id="node_expander14" style="cursor: pointer;"><path id="kity_path_140" fill="white" stroke="gray" d="M611.5502529144287,198.5502529144287A6,6,0,1,1,599.5502529144287,198.5502529144287A6,6,0,1,1,611.5502529144287,198.5502529144287"></path><path id="kity_path_141" fill="none" stroke="gray" d="M601.0502529144287,198.5502529144287L610.0502529144287,198.5502529144287"></path></g><path id="node_outline15" fill="rgb(238, 243, 246)" stroke="rgb(115, 161, 191)" d="M613.5,203.5h230a3,3,0,0,1,3,3v20a3,3,0,0,1,-3,3h-230a3,3,0,0,1,-3,-3v-20a3,3,0,0,1,3,-3z" stroke-width="1"></path><g id="node_text15" fill="black"><text id="kity_text_137" text-rendering="inherit" font-size="14" dy=".8em" y="207.40000009536743" x="630.5">《国家自然灾害救助应急预案》</text></g></g><g id="minder_node16"><g id="node_expander15" style="cursor: pointer;"><path id="kity_path_148" fill="white" stroke="gray" d="M840.5502529144287,108.44974708557129A6,6,0,1,1,828.5502529144287,108.44974708557129A6,6,0,1,1,840.5502529144287,108.44974708557129"></path><path id="kity_path_149" fill="none" stroke="gray" d="M830.0502529144287,108.44974708557129L839.0502529144287,108.44974708557129"></path></g><path id="node_outline16" fill="rgb(238, 243, 246)" stroke="rgb(115, 161, 191)" d="M842.5,77.5h258a3,3,0,0,1,3,3v20a3,3,0,0,1,-3,3h-258a3,3,0,0,1,-3,-3v-20a3,3,0,0,1,3,-3z" stroke-width="1"></path><g id="node_text16" fill="black"><text id="kity_text_145" text-rendering="inherit" font-size="14" dy=".8em" y="81.40000009536743" x="859.5">《国家突发公共事件总体应急预案》</text></g></g><g id="minder_node17"><g id="node_expander16" style="cursor: pointer;"><path id="kity_path_156" fill="white" stroke="gray" d="M887.5502529144287,198.5502529144287A6,6,0,1,1,875.5502529144287,198.5502529144287A6,6,0,1,1,887.5502529144287,198.5502529144287"></path><path id="kity_path_157" fill="none" stroke="gray" d="M877.0502529144287,198.5502529144287L886.0502529144287,198.5502529144287"></path></g><path id="node_outline17" fill="rgb(238, 243, 246)" stroke="rgb(115, 161, 191)" d="M889.5,203.5h314a3,3,0,0,1,3,3v20a3,3,0,0,1,-3,3h-314a3,3,0,0,1,-3,-3v-20a3,3,0,0,1,3,-3z" stroke-width="1"></path><g id="node_text17" fill="black"><text id="kity_text_153" text-rendering="inherit" font-size="14" dy=".8em" y="207.40000009536743" x="906.5">《国务院关于全面加强应急管理工作的意见》</text></g></g><g id="minder_node18"><g id="node_expander17" style="cursor: pointer;" display="none"><path id="kity_path_164" fill="white" stroke="gray" d="M746.5,275.5A6,6,0,1,1,734.5,275.5A6,6,0,1,1,746.5,275.5"></path><path id="kity_path_165" fill="none" stroke="gray"></path></g><path id="node_outline18" fill="none" stroke="none" d="M751.5,264.5h88a5,5,0,0,1,5,5v12a5,5,0,0,1,-5,5h-88a5,5,0,0,1,-5,-5v-12a5,5,0,0,1,5,-5z" stroke-width="3"></path><g id="node_text18" fill="black"><text id="kity_text_161" text-rendering="inherit" font-size="12" dy=".8em" y="267.7000000476837" x="756.5">2006年1月6日 </text></g></g><g id="minder_node19"><g id="node_expander18" style="cursor: pointer;" display="none"><path id="kity_path_172" fill="white" stroke="gray" d="M986.5,31.5A6,6,0,1,1,974.5,31.5A6,6,0,1,1,986.5,31.5"></path><path id="kity_path_173" fill="none" stroke="gray"></path></g><path id="node_outline19" fill="none" stroke="none" d="M991.5,20.5h88a5,5,0,0,1,5,5v12a5,5,0,0,1,-5,5h-88a5,5,0,0,1,-5,-5v-12a5,5,0,0,1,5,-5z" stroke-width="3"></path><g id="node_text19" fill="black"><text id="kity_text_169" text-rendering="inherit" font-size="12" dy=".8em" y="23.700000047683716" x="996.5">2006年1月8日 </text></g></g><g id="minder_node20"><g id="node_expander19" style="cursor: pointer;" display="none"><path id="kity_path_180" fill="white" stroke="gray" d="M1054.5,275.5A6,6,0,1,1,1042.5,275.5A6,6,0,1,1,1054.5,275.5"></path><path id="kity_path_181" fill="none" stroke="gray"></path></g><path id="node_outline20" fill="none" stroke="none" d="M1059.5,264.5h95a5,5,0,0,1,5,5v12a5,5,0,0,1,-5,5h-95a5,5,0,0,1,-5,-5v-12a5,5,0,0,1,5,-5z" stroke-width="3"></path><g id="node_text20" fill="black"><text id="kity_text_177" text-rendering="inherit" font-size="12" dy=".8em" y="267.7000000476837" x="1064.5">2006年6月15日</text></g></g></g></g></svg>