<svg id="kity_svg_6" xmlns="http://www.w3.org/2000/svg" xmlns:xlink="http://www.w3.org/1999/xlink" version="1.1" width="708" height="1160" style="background: rgb(251, 251, 251); visibility: visible;" viewBox="0 0 708 1160"><defs id="kity_defs_7"><linearGradient id="kity_linearGradient_17" x1="0" y1="0" x2="0" y2="1"><stop id="kity_stop_18" offset="0" stop-color="rgb(255, 255, 255)"></stop><stop id="kity_stop_19" offset="1" stop-color="rgb(204, 204, 204)"></stop></linearGradient><marker id="kity_marker_2" orient="auto" refX="6" refY="0" viewBox="-7 -7 14 14" markerWidth="7" markerHeight="7" markerUnits="userSpaceOnUse"><path id="kity_path_3" fill="rgb(115, 161, 191)" stroke="none" d="M6,0A6,6,0,1,1,-6,0A6,6,0,1,1,6,0"></path></marker></defs><g id="kity_g_8"><g id="minder1" text-rendering="optimize-speed"><g id="minder_connect_group1"><path id="kity_path_36" fill="none" stroke="rgb(115, 161, 191)" stroke-width="1" d="M155,606.5A252.5,445,0,0,1,407.5,161.5"></path><path id="kity_path_44" fill="none" stroke="rgb(115, 161, 191)" stroke-width="1" d="M155,606.5A252.5,175,0,0,1,407.5,431.5"></path><path id="kity_path_52" fill="none" stroke="rgb(115, 161, 191)" stroke-width="1" d="M155,606.5A252.5,69,0,0,0,407.5,675.5"></path><path id="kity_path_60" fill="none" stroke="rgb(115, 161, 191)" stroke-width="1" d="M155,606.5A252.5,237,0,0,0,407.5,843.5"></path><path id="kity_path_68" fill="none" stroke="rgb(115, 161, 191)" stroke-width="1" d="M155,606.5A252.5,303,0,0,0,407.5,909.5"></path><path id="kity_path_76" fill="none" stroke="rgb(115, 161, 191)" stroke-width="1" d="M155,606.5A252.5,445,0,0,0,407.5,1051.5"></path><path id="kity_path_92" fill="none" stroke="rgb(115, 161, 191)" stroke-width="1" d="M534.5,1051.5C554.5,1051.5,554.5,973.5,574.5,973.5"></path><path id="kity_path_100" fill="none" stroke="rgb(115, 161, 191)" stroke-width="1" d="M534.5,1051.5C554.5,1051.5,554.5,1025.5,574.5,1025.5"></path><path id="kity_path_108" fill="none" stroke="rgb(115, 161, 191)" stroke-width="1" d="M534.5,1051.5C554.5,1051.5,554.5,1077.5,574.5,1077.5"></path><path id="kity_path_116" fill="none" stroke="rgb(115, 161, 191)" stroke-width="1" d="M534.5,1051.5C554.5,1051.5,554.5,1129.5,574.5,1129.5"></path><path id="kity_path_124" fill="none" stroke="rgb(115, 161, 191)" stroke-width="1" d="M506.5,161.5C526.5,161.5,526.5,31.5,546.5,31.5"></path><path id="kity_path_132" fill="none" stroke="rgb(115, 161, 191)" stroke-width="1" d="M506.5,161.5C526.5,161.5,526.5,83.5,546.5,83.5"></path><path id="kity_path_140" fill="none" stroke="rgb(115, 161, 191)" stroke-width="1" d="M506.5,161.5C526.5,161.5,526.5,135.5,546.5,135.5"></path><path id="kity_path_148" fill="none" stroke="rgb(115, 161, 191)" stroke-width="1" d="M506.5,161.5C526.5,161.5,526.5,187.5,546.5,187.5"></path><path id="kity_path_156" fill="none" stroke="rgb(115, 161, 191)" stroke-width="1" d="M506.5,161.5C526.5,161.5,526.5,239.5,546.5,239.5"></path><path id="kity_path_164" fill="none" stroke="rgb(115, 161, 191)" stroke-width="1" d="M506.5,161.5C526.5,161.5,526.5,291.5,546.5,291.5"></path><path id="kity_path_180" fill="none" stroke="rgb(115, 161, 191)" stroke-width="1" d="M506.5,431.5C526.5,431.5,526.5,353.5,546.5,353.5"></path><path id="kity_path_188" fill="none" stroke="rgb(115, 161, 191)" stroke-width="1" d="M506.5,431.5C526.5,431.5,526.5,405.5,546.5,405.5"></path><path id="kity_path_196" fill="none" stroke="rgb(115, 161, 191)" stroke-width="1" d="M506.5,431.5C526.5,431.5,526.5,457.5,546.5,457.5"></path><path id="kity_path_204" fill="none" stroke="rgb(115, 161, 191)" stroke-width="1" d="M506.5,431.5C526.5,431.5,526.5,509.5,546.5,509.5"></path><path id="kity_path_212" fill="none" stroke="rgb(115, 161, 191)" stroke-width="1" d="M507.5,675.5C527.5,675.5,527.5,571.5,547.5,571.5"></path><path id="kity_path_220" fill="none" stroke="rgb(115, 161, 191)" stroke-width="1" d="M507.5,675.5C527.5,675.5,527.5,623.5,547.5,623.5"></path><path id="kity_path_228" fill="none" stroke="rgb(115, 161, 191)" stroke-width="1" d="M507.5,675.5C527.5,675.5,527.5,675.5,547.5,675.5"></path><path id="kity_path_236" fill="none" stroke="rgb(115, 161, 191)" stroke-width="1" d="M507.5,675.5C527.5,675.5,527.5,727.5,547.5,727.5"></path><path id="kity_path_244" fill="none" stroke="rgb(115, 161, 191)" stroke-width="1" d="M507.5,675.5C527.5,675.5,527.5,779.5,547.5,779.5"></path></g><g id="minder_node1"><path id="node_outline1" fill="rgb(115, 161, 191)" stroke="rgb(57, 80, 96)" d="M25.5,586.5h259a5,5,0,0,1,5,5v30a5,5,0,0,1,-5,5h-259a5,5,0,0,1,-5,-5v-30a5,5,0,0,1,5,-5z" stroke-width="3"></path><g id="node_text1" fill="white"><text id="kity_text_22" text-rendering="inherit" font-size="16" dy=".8em" y="596.0999999046326" x="44.5">联邦紧急事务管理署（FEMA）</text></g><g id="node_priority1" display="none"><path id="kity_path_32" fill="#840023" stroke="none" d="M15,610c0,3.866,3.134,7,7,7h6c3.866,0,7,-3.134,7,-7V604H15V610z"></path><path id="kity_path_33" fill="#FF1200" stroke="none" d="M35,607c0,3.866,-3.134,7,-7,7H22c-3.866,0,-7,-3.134,-7,-7V604c0,-3.866,3.134,-7,7,-7h6c3.866,0,7,3.134,7,7V607z" opacity="0.8"></path><text id="kity_text_34" text-rendering="geometricPrecision" x="24" y="606.5" text-anchor="middle" font-style="italic" font-size="12" fill="white" dy="5">1</text></g></g><g id="kity_g_12"><path id="kity_path_13" fill="none" stroke="none" d="M44.5,606.5h0v0h0z"></path></g><g id="kity_g_14"><path id="kity_path_15" fill="none" stroke="none" d="M44.5,606.5h0v0h0z"></path><path id="kity_path_16" fill="none" stroke="none"></path></g><g id="minder_node2"><g id="node_expander1" style="cursor: pointer;"><path id="kity_path_41" fill="white" stroke="gray" d="M408.5,161.5A6,6,0,1,1,396.5,161.5A6,6,0,1,1,408.5,161.5"></path><path id="kity_path_42" fill="none" stroke="gray" d="M398,161.5L407,161.5"></path></g><path id="node_outline2" fill="rgb(238, 243, 246)" stroke="rgb(115, 161, 191)" d="M412.5,148.5h91a3,3,0,0,1,3,3v20a3,3,0,0,1,-3,3h-91a3,3,0,0,1,-3,-3v-20a3,3,0,0,1,3,-3z" stroke-width="1"></path><g id="node_text2" fill="black"><text id="kity_text_38" text-rendering="inherit" font-size="14" dy=".8em" y="152.40000009536743" x="429.5">管理部门</text></g></g><g id="minder_node3"><g id="node_expander2" style="cursor: pointer;"><path id="kity_path_49" fill="white" stroke="gray" d="M408.5,431.5A6,6,0,1,1,396.5,431.5A6,6,0,1,1,408.5,431.5"></path><path id="kity_path_50" fill="none" stroke="gray" d="M398,431.5L407,431.5"></path></g><path id="node_outline3" fill="rgb(238, 243, 246)" stroke="rgb(115, 161, 191)" d="M412.5,418.5h91a3,3,0,0,1,3,3v20a3,3,0,0,1,-3,3h-91a3,3,0,0,1,-3,-3v-20a3,3,0,0,1,3,-3z" stroke-width="1"></path><g id="node_text3" fill="black"><text id="kity_text_46" text-rendering="inherit" font-size="14" dy=".8em" y="422.40000009536743" x="429.5">补给部门</text></g></g><g id="minder_node4"><g id="node_expander3" style="cursor: pointer;"><path id="kity_path_57" fill="white" stroke="gray" d="M408.5,675.5A6,6,0,1,1,396.5,675.5A6,6,0,1,1,408.5,675.5"></path><path id="kity_path_58" fill="none" stroke="gray" d="M398,675.5L407,675.5"></path></g><path id="node_outline4" fill="rgb(238, 243, 246)" stroke="rgb(115, 161, 191)" d="M412.5,662.5h92a3,3,0,0,1,3,3v20a3,3,0,0,1,-3,3h-92a3,3,0,0,1,-3,-3v-20a3,3,0,0,1,3,-3z" stroke-width="1"></path><g id="node_text4" fill="black"><text id="kity_text_54" text-rendering="inherit" font-size="14" dy=".8em" y="666.4000000953674" x="429.5">信息支持</text></g></g><g id="minder_node5"><g id="node_expander4" style="cursor: pointer;" display="none"><path id="kity_path_65" fill="white" stroke="gray" d="M408.5,843.5A6,6,0,1,1,396.5,843.5A6,6,0,1,1,408.5,843.5"></path><path id="kity_path_66" fill="none" stroke="gray" d="M398,843.5L407,843.5"></path></g><path id="node_outline5" fill="rgb(238, 243, 246)" stroke="rgb(115, 161, 191)" d="M412.5,830.5h104a3,3,0,0,1,3,3v20a3,3,0,0,1,-3,3h-104a3,3,0,0,1,-3,-3v-20a3,3,0,0,1,3,-3z" stroke-width="1"></path><g id="node_text5" fill="black"><text id="kity_text_62" text-rendering="inherit" font-size="14" dy=".8em" y="834.4000000953674" x="429.5">美国消防局</text></g></g><g id="minder_node6"><g id="node_expander5" style="cursor: pointer;" display="none"><path id="kity_path_73" fill="white" stroke="gray" d="M408.5,909.5A6,6,0,1,1,396.5,909.5A6,6,0,1,1,408.5,909.5"></path><path id="kity_path_74" fill="none" stroke="gray"></path></g><path id="node_outline6" fill="rgb(238, 243, 246)" stroke="rgb(115, 161, 191)" d="M412.5,896.5h160a3,3,0,0,1,3,3v20a3,3,0,0,1,-3,3h-160a3,3,0,0,1,-3,-3v-20a3,3,0,0,1,3,-3z" stroke-width="1"></path><g id="node_text6" fill="black"><text id="kity_text_70" text-rendering="inherit" font-size="14" dy=".8em" y="900.4000000953674" x="429.5">十个区域管理办公室</text></g></g><g id="minder_node7"><g id="node_expander6" style="cursor: pointer;"><path id="kity_path_81" fill="white" stroke="gray" d="M408.5,1051.5A6,6,0,1,1,396.5,1051.5A6,6,0,1,1,408.5,1051.5"></path><path id="kity_path_82" fill="none" stroke="gray" d="M398,1051.5L407,1051.5"></path></g><path id="node_outline7" fill="rgb(238, 243, 246)" stroke="rgb(115, 161, 191)" d="M412.5,1038.5h119a3,3,0,0,1,3,3v20a3,3,0,0,1,-3,3h-119a3,3,0,0,1,-3,-3v-20a3,3,0,0,1,3,-3z" stroke-width="1"></path><g id="node_text7" fill="black"><text id="kity_text_78" text-rendering="inherit" font-size="14" dy=".8em" y="1042.4000000953674" x="429.5">反馈恢复部门</text></g></g><g id="minder_node9"><g id="node_expander8" style="cursor: pointer;" display="none"><path id="kity_path_97" fill="white" stroke="gray" d="M574.5,973.5A6,6,0,1,1,562.5,973.5A6,6,0,1,1,574.5,973.5"></path><path id="kity_path_98" fill="none" stroke="gray"></path></g><path id="node_outline9" fill="none" stroke="none" d="M579.5,962.5h59a5,5,0,0,1,5,5v12a5,5,0,0,1,-5,5h-59a5,5,0,0,1,-5,-5v-12a5,5,0,0,1,5,-5z" stroke-width="3"></path><g id="node_text9" fill="black"><text id="kity_text_94" text-rendering="inherit" font-size="12" dy=".8em" y="965.7000000476837" x="584.5">反馈部门</text></g></g><g id="minder_node10"><g id="node_expander9" style="cursor: pointer;" display="none"><path id="kity_path_105" fill="white" stroke="gray" d="M574.5,1025.5A6,6,0,1,1,562.5,1025.5A6,6,0,1,1,574.5,1025.5"></path><path id="kity_path_106" fill="none" stroke="gray"></path></g><path id="node_outline10" fill="none" stroke="none" d="M579.5,1014.5h59a5,5,0,0,1,5,5v12a5,5,0,0,1,-5,5h-59a5,5,0,0,1,-5,-5v-12a5,5,0,0,1,5,-5z" stroke-width="3"></path><g id="node_text10" fill="black"><text id="kity_text_102" text-rendering="inherit" font-size="12" dy=".8em" y="1017.7000000476837" x="584.5">恢复部门</text></g></g><g id="minder_node11"><g id="node_expander10" style="cursor: pointer;" display="none"><path id="kity_path_113" fill="white" stroke="gray" d="M574.5,1077.5A6,6,0,1,1,562.5,1077.5A6,6,0,1,1,574.5,1077.5"></path><path id="kity_path_114" fill="none" stroke="gray"></path></g><path id="node_outline11" fill="none" stroke="none" d="M579.5,1066.5h72a5,5,0,0,1,5,5v12a5,5,0,0,1,-5,5h-72a5,5,0,0,1,-5,-5v-12a5,5,0,0,1,5,-5z" stroke-width="3"></path><g id="node_text11" fill="black"><text id="kity_text_110" text-rendering="inherit" font-size="12" dy=".8em" y="1069.7000000476837" x="584.5">实地行动组</text></g></g><g id="minder_node12"><g id="node_expander11" style="cursor: pointer;" display="none"><path id="kity_path_121" fill="white" stroke="gray" d="M574.5,1129.5A6,6,0,1,1,562.5,1129.5A6,6,0,1,1,574.5,1129.5"></path><path id="kity_path_122" fill="none" stroke="gray"></path></g><path id="node_outline12" fill="none" stroke="none" d="M579.5,1118.5h60a5,5,0,0,1,5,5v12a5,5,0,0,1,-5,5h-60a5,5,0,0,1,-5,-5v-12a5,5,0,0,1,5,-5z" stroke-width="3"></path><g id="node_text12" fill="black"><text id="kity_text_118" text-rendering="inherit" font-size="12" dy=".8em" y="1121.7000000476837" x="584.5">后勤管理</text></g></g><g id="minder_node13"><g id="node_expander12" style="cursor: pointer;" display="none"><path id="kity_path_129" fill="white" stroke="gray" d="M546.5,31.5A6,6,0,1,1,534.5,31.5A6,6,0,1,1,546.5,31.5"></path><path id="kity_path_130" fill="none" stroke="gray"></path></g><path id="node_outline13" fill="none" stroke="none" d="M551.5,20.5h131a5,5,0,0,1,5,5v12a5,5,0,0,1,-5,5h-131a5,5,0,0,1,-5,-5v-12a5,5,0,0,1,5,-5z" stroke-width="3"></path><g id="node_text13" fill="black"><text id="kity_text_126" text-rendering="inherit" font-size="12" dy=".8em" y="23.700000047683716" x="556.5">灾祸致残综合协调部门</text></g></g><g id="minder_node14"><g id="node_expander13" style="cursor: pointer;" display="none"><path id="kity_path_137" fill="white" stroke="gray" d="M546.5,83.5A6,6,0,1,1,534.5,83.5A6,6,0,1,1,546.5,83.5"></path><path id="kity_path_138" fill="none" stroke="gray"></path></g><path id="node_outline14" fill="none" stroke="none" d="M551.5,72.5h71a5,5,0,0,1,5,5v12a5,5,0,0,1,-5,5h-71a5,5,0,0,1,-5,-5v-12a5,5,0,0,1,5,-5z" stroke-width="3"></path><g id="node_text14" fill="black"><text id="kity_text_134" text-rendering="inherit" font-size="12" dy=".8em" y="75.70000004768372" x="556.5">总财务部门</text></g></g><g id="minder_node15"><g id="node_expander14" style="cursor: pointer;" display="none"><path id="kity_path_145" fill="white" stroke="gray" d="M546.5,135.5A6,6,0,1,1,534.5,135.5A6,6,0,1,1,546.5,135.5"></path><path id="kity_path_146" fill="none" stroke="gray"></path></g><path id="node_outline15" fill="none" stroke="none" d="M551.5,124.5h107a5,5,0,0,1,5,5v12a5,5,0,0,1,-5,5h-107a5,5,0,0,1,-5,-5v-12a5,5,0,0,1,5,-5z" stroke-width="3"></path><g id="node_text15" fill="black"><text id="kity_text_142" text-rendering="inherit" font-size="12" dy=".8em" y="127.70000004768372" x="556.5">政治方案分析部门</text></g></g><g id="minder_node16"><g id="node_expander15" style="cursor: pointer;" display="none"><path id="kity_path_153" fill="white" stroke="gray" d="M546.5,187.5A6,6,0,1,1,534.5,187.5A6,6,0,1,1,546.5,187.5"></path><path id="kity_path_154" fill="none" stroke="gray"></path></g><path id="node_outline16" fill="none" stroke="none" d="M551.5,176.5h107a5,5,0,0,1,5,5v12a5,5,0,0,1,-5,5h-107a5,5,0,0,1,-5,-5v-12a5,5,0,0,1,5,-5z" stroke-width="3"></path><g id="node_text16" fill="black"><text id="kity_text_150" text-rendering="inherit" font-size="12" dy=".8em" y="179.70000004768372" x="556.5">公民权利公平部门</text></g></g><g id="minder_node17"><g id="node_expander16" style="cursor: pointer;" display="none"><path id="kity_path_161" fill="white" stroke="gray" d="M546.5,239.5A6,6,0,1,1,534.5,239.5A6,6,0,1,1,546.5,239.5"></path><path id="kity_path_162" fill="none" stroke="gray"></path></g><path id="node_outline17" fill="none" stroke="none" d="M551.5,228.5h59a5,5,0,0,1,5,5v12a5,5,0,0,1,-5,5h-59a5,5,0,0,1,-5,-5v-12a5,5,0,0,1,5,-5z" stroke-width="3"></path><g id="node_text17" fill="black"><text id="kity_text_158" text-rendering="inherit" font-size="12" dy=".8em" y="231.70000004768372" x="556.5">外政部门</text></g></g><g id="minder_node18"><g id="node_expander17" style="cursor: pointer;" display="none"><path id="kity_path_169" fill="white" stroke="gray" d="M546.5,291.5A6,6,0,1,1,534.5,291.5A6,6,0,1,1,546.5,291.5"></path><path id="kity_path_170" fill="none" stroke="gray"></path></g><path id="node_outline18" fill="none" stroke="none" d="M551.5,280.5h106a5,5,0,0,1,5,5v12a5,5,0,0,1,-5,5h-106a5,5,0,0,1,-5,-5v-12a5,5,0,0,1,5,-5z" stroke-width="3"></path><g id="node_text18" fill="black"><text id="kity_text_166" text-rendering="inherit" font-size="12" dy=".8em" y="283.7000000476837" x="556.5">首都区域协调部门</text></g></g><g id="minder_node20"><g id="node_expander19" style="cursor: pointer;" display="none"><path id="kity_path_185" fill="white" stroke="gray" d="M546.5,353.5A6,6,0,1,1,534.5,353.5A6,6,0,1,1,546.5,353.5"></path><path id="kity_path_186" fill="none" stroke="gray"></path></g><path id="node_outline20" fill="none" stroke="none" d="M551.5,342.5h83a5,5,0,0,1,5,5v12a5,5,0,0,1,-5,5h-83a5,5,0,0,1,-5,-5v-12a5,5,0,0,1,5,-5z" stroke-width="3"></path><g id="node_text20" fill="black"><text id="kity_text_182" text-rendering="inherit" font-size="12" dy=".8em" y="345.7000000476837" x="556.5">灾难拨款部门</text></g></g><g id="minder_node21"><g id="node_expander20" style="cursor: pointer;" display="none"><path id="kity_path_193" fill="white" stroke="gray" d="M546.5,405.5A6,6,0,1,1,534.5,405.5A6,6,0,1,1,546.5,405.5"></path><path id="kity_path_194" fill="none" stroke="gray"></path></g><path id="node_outline21" fill="none" stroke="none" d="M551.5,394.5h131a5,5,0,0,1,5,5v12a5,5,0,0,1,-5,5h-131a5,5,0,0,1,-5,-5v-12a5,5,0,0,1,5,-5z" stroke-width="3"></path><g id="node_text21" fill="black"><text id="kity_text_190" text-rendering="inherit" font-size="12" dy=".8em" y="397.7000000476837" x="556.5">联邦保险和减灾管理局</text></g></g><g id="minder_node22"><g id="node_expander21" style="cursor: pointer;" display="none"><path id="kity_path_201" fill="white" stroke="gray" d="M546.5,457.5A6,6,0,1,1,534.5,457.5A6,6,0,1,1,546.5,457.5"></path><path id="kity_path_202" fill="none" stroke="gray"></path></g><path id="node_outline22" fill="none" stroke="none" d="M551.5,446.5h83a5,5,0,0,1,5,5v12a5,5,0,0,1,-5,5h-83a5,5,0,0,1,-5,-5v-12a5,5,0,0,1,5,-5z" stroke-width="3"></path><g id="node_text22" fill="black"><text id="kity_text_198" text-rendering="inherit" font-size="12" dy=".8em" y="449.7000000476837" x="556.5">灾后运转部门</text></g></g><g id="minder_node23"><g id="node_expander22" style="cursor: pointer;" display="none"><path id="kity_path_209" fill="white" stroke="gray" d="M546.5,509.5A6,6,0,1,1,534.5,509.5A6,6,0,1,1,546.5,509.5"></path><path id="kity_path_210" fill="none" stroke="gray"></path></g><path id="node_outline23" fill="none" stroke="none" d="M551.5,498.5h72a5,5,0,0,1,5,5v12a5,5,0,0,1,-5,5h-72a5,5,0,0,1,-5,-5v-12a5,5,0,0,1,5,-5z" stroke-width="3"></path><g id="node_text23" fill="black"><text id="kity_text_206" text-rendering="inherit" font-size="12" dy=".8em" y="501.7000000476837" x="556.5">全国整备处</text></g></g><g id="minder_node24"><g id="node_expander23" style="cursor: pointer;" display="none"><path id="kity_path_217" fill="white" stroke="gray" d="M547.5,571.5A6,6,0,1,1,535.5,571.5A6,6,0,1,1,547.5,571.5"></path><path id="kity_path_218" fill="none" stroke="gray"></path></g><path id="node_outline24" fill="none" stroke="none" d="M552.5,560.5h107a5,5,0,0,1,5,5v12a5,5,0,0,1,-5,5h-107a5,5,0,0,1,-5,-5v-12a5,5,0,0,1,5,-5z" stroke-width="3"></path><g id="node_text24" fill="black"><text id="kity_text_214" text-rendering="inherit" font-size="12" dy=".8em" y="563.7000000476837" x="557.5">首席行政官办公室</text></g></g><g id="minder_node25"><g id="node_expander24" style="cursor: pointer;" display="none"><path id="kity_path_225" fill="white" stroke="gray" d="M547.5,623.5A6,6,0,1,1,535.5,623.5A6,6,0,1,1,547.5,623.5"></path><path id="kity_path_226" fill="none" stroke="gray"></path></g><path id="node_outline25" fill="none" stroke="none" d="M552.5,612.5h96a5,5,0,0,1,5,5v12a5,5,0,0,1,-5,5h-96a5,5,0,0,1,-5,-5v-12a5,5,0,0,1,5,-5z" stroke-width="3"></path><g id="node_text25" fill="black"><text id="kity_text_222" text-rendering="inherit" font-size="12" dy=".8em" y="615.7000000476837" x="557.5">总采购处办公室</text></g></g><g id="minder_node26"><g id="node_expander25" style="cursor: pointer;" display="none"><path id="kity_path_233" fill="white" stroke="gray" d="M547.5,675.5A6,6,0,1,1,535.5,675.5A6,6,0,1,1,547.5,675.5"></path><path id="kity_path_234" fill="none" stroke="gray"></path></g><path id="node_outline26" fill="none" stroke="none" d="M552.5,664.5h107a5,5,0,0,1,5,5v12a5,5,0,0,1,-5,5h-107a5,5,0,0,1,-5,-5v-12a5,5,0,0,1,5,-5z" stroke-width="3"></path><g id="node_text26" fill="black"><text id="kity_text_230" text-rendering="inherit" font-size="12" dy=".8em" y="667.7000000476837" x="557.5">首席信息官办公室</text></g></g><g id="minder_node27"><g id="node_expander26" style="cursor: pointer;" display="none"><path id="kity_path_241" fill="white" stroke="gray" d="M547.5,727.5A6,6,0,1,1,535.5,727.5A6,6,0,1,1,547.5,727.5"></path><path id="kity_path_242" fill="none" stroke="gray"></path></g><path id="node_outline27" fill="none" stroke="none" d="M552.5,716.5h131a5,5,0,0,1,5,5v12a5,5,0,0,1,-5,5h-131a5,5,0,0,1,-5,-5v-12a5,5,0,0,1,5,-5z" stroke-width="3"></path><g id="node_text27" fill="black"><text id="kity_text_238" text-rendering="inherit" font-size="12" dy=".8em" y="719.7000000476837" x="557.5">首席人力资源官办公室</text></g></g><g id="minder_node28"><g id="node_expander27" style="cursor: pointer;" display="none"><path id="kity_path_249" fill="white" stroke="gray" d="M547.5,779.5A6,6,0,1,1,535.5,779.5A6,6,0,1,1,547.5,779.5"></path><path id="kity_path_250" fill="none" stroke="gray"></path></g><path id="node_outline28" fill="none" stroke="none" d="M552.5,768.5h107a5,5,0,0,1,5,5v12a5,5,0,0,1,-5,5h-107a5,5,0,0,1,-5,-5v-12a5,5,0,0,1,5,-5z" stroke-width="3"></path><g id="node_text28" fill="black"><text id="kity_text_246" text-rendering="inherit" font-size="12" dy=".8em" y="771.7000000476837" x="557.5">首席安全官办公室</text></g></g></g></g></svg>